<?xml version="1.0" encoding="UTF-8" standalone="no"?>
<svg
   width="176"
   height="176"
   version="1.1"
   id="svg11"
   sodipodi:docname="player-helmet-last-man-03.svg"
   inkscape:version="1.4.2 (f4327f4, 2025-05-13)"
   xml:space="preserve"
   xmlns:inkscape="http://www.inkscape.org/namespaces/inkscape"
   xmlns:sodipodi="http://sodipodi.sourceforge.net/DTD/sodipodi-0.dtd"
   xmlns="http://www.w3.org/2000/svg"
   xmlns:svg="http://www.w3.org/2000/svg"
   xmlns:rdf="http://www.w3.org/1999/02/22-rdf-syntax-ns#"
   xmlns:cc="http://creativecommons.org/ns#"
   xmlns:dc="http://purl.org/dc/elements/1.1/"><metadata
     id="metadata15"><rdf:RDF><cc:Work
         rdf:about=""><dc:format>image/svg+xml</dc:format><dc:type
           rdf:resource="http://purl.org/dc/dcmitype/StillImage" /></cc:Work></rdf:RDF></metadata><sodipodi:namedview
     pagecolor="#ffffff"
     bordercolor="#666666"
     borderopacity="1"
     objecttolerance="10"
     gridtolerance="10"
     guidetolerance="10"
     inkscape:pageopacity="0"
     inkscape:pageshadow="2"
     inkscape:window-width="1920"
     inkscape:window-height="1017"
     id="namedview13"
     showgrid="true"
     inkscape:zoom="5.3636364"
     inkscape:cx="64.601694"
     inkscape:cy="84.364406"
     inkscape:window-x="-8"
     inkscape:window-y="-8"
     inkscape:window-maximized="1"
     inkscape:current-layer="svg11"
     inkscape:showpageshadow="0"
     inkscape:pagecheckerboard="0"
     inkscape:deskcolor="#d1d1d1"><inkscape:grid
       type="xygrid"
       id="grid831"
       empspacing="4"
       spacingy="2"
       spacingx="2"
       originx="0"
       originy="0"
       units="px" /></sodipodi:namedview><defs
     id="defs5"><clipPath
       id="a"><path
         d="M188 128c0 80-69.756 119.362-69.756 119.362C64 244 8.638 193.922 8.638 128S64 12 118.244 8.638C118.244 8.638 188 48 188 128z"
         fill="#252525"
         fill-opacity=".601"
         stroke-width="12.537"
         id="path2" /></clipPath><clipPath
       clipPathUnits="userSpaceOnUse"
       id="clipPath881"><path
         id="path883"
         d="M 53.110836,88.000002 C 53.110836,41.958818 80,32 80,32 111.21823,33.93488 156.33632,50.060916 156.33632,88.000002 156.33632,125.93909 111.21823,142.06513 80,144 80,144 53.110836,134.04118 53.110836,88.000002 Z"
         inkscape:connector-curvature="0"
         style="fill:#252525;fill-opacity:0.60100002;stroke-width:7.21522856"
         sodipodi:nodetypes="scscs" /></clipPath><clipPath
       id="a-0"><path
         d="M188 128c0 80-69.756 119.362-69.756 119.362C64 244 8.638 193.922 8.638 128S64 12 118.244 8.638C118.244 8.638 188 48 188 128z"
         fill="#252525"
         fill-opacity=".601"
         stroke-width="12.537"
         id="path1" /></clipPath></defs><path
     sodipodi:nodetypes="scscs"
     style="fill:#1a1a1a;fill-opacity:0.83333331;stroke-width:19;stroke:#090909;stroke-opacity:1;stroke-miterlimit:4;stroke-dasharray:none"
     inkscape:connector-curvature="0"
     d="M 53.110836,88.000002 C 53.110836,41.958818 80,32 80,32 111.21823,33.93488 156.33632,50.060916 156.33632,88.000002 156.33632,125.93909 111.21823,142.06513 80,144 80,144 53.110836,134.04118 53.110836,88.000002 Z"
     id="path879"
     clip-path="url(#clipPath881)" /><path
     d="M188 128c0 80-69.756 119.362-69.756 119.362C64 244 8.638 193.922 8.638 128S64 12 118.244 8.638C118.244 8.638 188 48 188 128z"
     clip-path="url(#a)"
     transform="matrix(.52122 0 0 .52122 24.17 21.284)"
     fill="#252525"
     stroke="#090909"
     stroke-width="37.259"
     id="path7"
     style="stroke-width:37.25873911;stroke-miterlimit:4;stroke-dasharray:none;fill:#1a1a1a;fill-opacity:1" /><path
     d="m 81.850281,88.479463 -7.407097,2.565634 -0.07032,8.079366 -4.647508,-6.493735 -7.450505,2.427366 4.533777,-6.578631 -4.534174,-6.579036 7.450109,2.42777 4.649083,-6.49373 0.07032,8.078958 z"
     fill="#fff00f"
     stroke="#0a0a0a"
     stroke-width="2.38516"
     id="path3-8" /><g
     transform="matrix(1,0,0,-1,0,174.21354)"
     id="g848"><g
       id="g855"><g
         transform="matrix(1,0,0,-1,0,172.42708)"
         id="g844"
         style=""><path
           style="fill:none;stroke:#090909;stroke-width:8;stroke-linecap:butt;stroke-linejoin:miter;stroke-miterlimit:4;stroke-dasharray:none;stroke-opacity:1"
           d="m 48,46.21354 c 36,20 100,23.999998 100,23.999998"
           id="path835"
           inkscape:connector-curvature="0"
           sodipodi:nodetypes="cc" /></g><path
         sodipodi:nodetypes="cc"
         inkscape:connector-curvature="0"
         id="path846"
         d="m 48,46.21354 c 36,20 100,23.999998 100,23.999998"
         style="fill:none;stroke:#090909;stroke-width:8;stroke-linecap:butt;stroke-linejoin:miter;stroke-miterlimit:4;stroke-dasharray:none;stroke-opacity:1" /></g></g><path
     style="fill:#ffff00;fill-opacity:1;stroke:#0a0a0a;stroke-width:4.89825"
     inkscape:connector-curvature="0"
     id="path885"
     d="m 109.45467,87.424408 -7.71405,13.320912 c 0,0 -16.82911,2.83715 -28.409505,8.96594 L 88.501127,88.729492 73.237894,66.631263 c 11.580395,6.12878 26.400011,7.230613 26.400011,7.230613 z"
     sodipodi:nodetypes="ccccccc" /><path
     style="fill:#ffff00;fill-opacity:1;stroke:#090909;stroke-width:9.5;stroke-linecap:butt;stroke-linejoin:miter;stroke-miterlimit:4;stroke-dasharray:none;stroke-opacity:1"
     d="M 114,68 100,38 c 40,8 56,34 56,34 z"
     id="path895"
     inkscape:connector-curvature="0"
     sodipodi:nodetypes="cccc" /><path
     sodipodi:nodetypes="cccc"
     inkscape:connector-curvature="0"
     id="path897"
     d="m 113.817,111.64707 -14.178102,26.64336 c 40.508872,-7.1049 56.712422,-30.1958 56.712422,-30.1958 z"
     style="fill:#ffff00;fill-opacity:1;stroke:#090909;stroke-width:9.00954;stroke-linecap:butt;stroke-linejoin:miter;stroke-miterlimit:4;stroke-dasharray:none;stroke-opacity:1" /><g
     id="g893"
     style="fill:#1a1a1a"><path
       sodipodi:nodetypes="cccc"
       inkscape:connector-curvature="0"
       id="path887"
       d="m 116,68 c 0,0 -36,-4 -72,-20 0,0 12,-16 36,-22 0,0 28,16 36,42 z"
       style="fill:#1a1a1a;fill-opacity:1;stroke:#090909;stroke-width:9.5;stroke-linecap:butt;stroke-linejoin:miter;stroke-miterlimit:4;stroke-dasharray:none;stroke-opacity:1" /><path
       style="fill:#1a1a1a;fill-opacity:1;stroke:#090909;stroke-width:9.5;stroke-linecap:butt;stroke-linejoin:miter;stroke-miterlimit:4;stroke-dasharray:none;stroke-opacity:1"
       d="m 116,108 c 0,0 -36,4 -72,20 0,0 12,16 36,22 0,0 28,-16 36,-42 z"
       id="path889"
       inkscape:connector-curvature="0"
       sodipodi:nodetypes="cccc" /></g><g
     id="g1"
     transform="matrix(0.35733703,0,0,0.34442563,-15.654147,61.278523)"><path
       d="m 223.44218,40.518691 -20.7286,7.449023 -0.19679,23.457495 -13.00595,-18.853799 -20.85008,7.047577 12.68768,-19.100296 -12.68879,-19.101471 20.84897,7.048752 13.01036,-18.8537949 0.1968,23.4563189 z"
       fill="#fff00f"
       stroke="#0a0a0a"
       stroke-width="6.79879"
       id="path3" /></g><path
     d="m 64.072894,100.31309 -7.407097,2.56564 -0.07032,8.07937 -4.647508,-6.49373 -7.450506,2.42736 4.533778,-6.57864 -4.534174,-6.579032 7.450109,2.42777 4.649083,-6.49373 0.07032,8.078958 z"
     fill="#fff00f"
     stroke="#0a0a0a"
     stroke-width="2.38516"
     id="path3-2" /></svg>
